<mxfile host="65bd71144e">
    <diagram id="Zq_J-CpgERyYpUgiQt7R" name="第 1 页">
        <mxGraphModel dx="3724" dy="2716" grid="1" gridSize="10" guides="1" tooltips="1" connect="1" arrows="1" fold="1" page="1" pageScale="1" pageWidth="827" pageHeight="1169" background="#1A1A1A" math="0" shadow="0">
            <root>
                <mxCell id="0"/>
                <mxCell id="1" parent="0"/>
                <mxCell id="2" value="" style="swimlane;startSize=0;" parent="1" vertex="1">
                    <mxGeometry x="-426" y="140" width="450" height="510" as="geometry"/>
                </mxCell>
                <mxCell id="9" value="&lt;span style=&quot;font-size: 24px;&quot;&gt;图传+管理模块&lt;/span&gt;" style="rounded=1;whiteSpace=wrap;html=1;" parent="2" vertex="1">
                    <mxGeometry x="70" y="46.00000000000001" width="310" height="98.74" as="geometry"/>
                </mxCell>
                <mxCell id="12" value="&lt;span style=&quot;font-size: 24px;&quot;&gt;控制模块&lt;/span&gt;" style="rounded=1;whiteSpace=wrap;html=1;" parent="2" vertex="1">
                    <mxGeometry x="70" y="280" width="310" height="102.48" as="geometry"/>
                </mxCell>
                <mxCell id="14" value="串&lt;br&gt;口&lt;br&gt;通&lt;br&gt;信" style="shape=doubleArrow;direction=south;whiteSpace=wrap;html=1;fontSize=24;" parent="2" vertex="1">
                    <mxGeometry x="167.5" y="147.82" width="115" height="132.18" as="geometry"/>
                </mxCell>
                <mxCell id="22" value="下位机" style="text;strokeColor=none;fillColor=none;html=1;fontSize=24;fontStyle=1;verticalAlign=middle;align=center;" parent="2" vertex="1">
                    <mxGeometry x="175" y="430" width="100" height="40" as="geometry"/>
                </mxCell>
                <mxCell id="4" value="" style="ellipse;whiteSpace=wrap;html=1;fontStyle=1;startSize=0;" parent="1" vertex="1">
                    <mxGeometry x="134" y="-530" width="570" height="570" as="geometry"/>
                </mxCell>
                <mxCell id="19" value="" style="html=1;shadow=0;dashed=0;align=center;verticalAlign=middle;shape=mxgraph.arrows2.bendDoubleArrow;dy=15;dx=38;arrowHead=55;rounded=1;fontSize=24;" parent="1" vertex="1">
                    <mxGeometry x="-216" y="-260" width="350" height="400" as="geometry"/>
                </mxCell>
                <mxCell id="17" value="&lt;p&gt;WIFI&lt;/p&gt;&lt;p&gt;通&lt;/p&gt;&lt;p&gt;信&lt;/p&gt;" style="text;strokeColor=none;fillColor=none;html=1;fontSize=24;fontStyle=1;verticalAlign=middle;align=center;direction=south;" parent="1" vertex="1">
                    <mxGeometry x="-206" y="-169" width="40" height="137" as="geometry"/>
                </mxCell>
                <mxCell id="23" value="&lt;font style=&quot;font-size: 36px;&quot;&gt;上位机&lt;/font&gt;" style="text;strokeColor=none;fillColor=none;html=1;fontSize=24;fontStyle=1;verticalAlign=middle;align=center;" parent="1" vertex="1">
                    <mxGeometry x="379" y="-21.670000000000016" width="100" height="40" as="geometry"/>
                </mxCell>
                <mxCell id="25" value="总管理模块" style="ellipse;whiteSpace=wrap;html=1;fontSize=36;" parent="1" vertex="1">
                    <mxGeometry x="232.75" y="-470" width="372.5" height="173.33" as="geometry"/>
                </mxCell>
                <mxCell id="26" value="人脸识别模块" style="ellipse;whiteSpace=wrap;html=1;fontSize=36;" parent="1" vertex="1">
                    <mxGeometry x="242.75" y="-195" width="372.5" height="173.33" as="geometry"/>
                </mxCell>
                <mxCell id="28" value="调用" style="shape=singleArrow;direction=south;whiteSpace=wrap;html=1;fontSize=36;" parent="1" vertex="1">
                    <mxGeometry x="366.5" y="-296.6700000000001" width="125" height="100" as="geometry"/>
                </mxCell>
                <mxCell id="34" value="&lt;font style=&quot;font-size: 24px;&quot;&gt;MQTT协议&lt;/font&gt;" style="text;html=1;strokeColor=none;fillColor=none;align=center;verticalAlign=middle;whiteSpace=wrap;rounded=0;fontSize=36;" parent="1" vertex="1">
                    <mxGeometry x="-216" width="60" height="30" as="geometry"/>
                </mxCell>
                <mxCell id="50" value="" style="html=1;shadow=0;dashed=0;align=center;verticalAlign=middle;shape=mxgraph.arrows2.bendDoubleArrow;dy=15;dx=38;arrowHead=55;rounded=1;fontSize=24;rotation=90;" parent="1" vertex="1">
                    <mxGeometry x="700.3399999999999" y="-277.66999999999996" width="413" height="401.67" as="geometry"/>
                </mxCell>
                <mxCell id="54" value="&lt;p&gt;WIFI&lt;/p&gt;&lt;p&gt;通&lt;/p&gt;&lt;p&gt;信&lt;/p&gt;" style="text;strokeColor=none;fillColor=none;html=1;fontSize=24;fontStyle=1;verticalAlign=middle;align=center;direction=south;" parent="1" vertex="1">
                    <mxGeometry x="1063.34" y="-176.32999999999993" width="40" height="137" as="geometry"/>
                </mxCell>
                <mxCell id="55" value="&lt;font style=&quot;font-size: 24px;&quot;&gt;MQTT协议&lt;/font&gt;" style="text;html=1;strokeColor=none;fillColor=none;align=center;verticalAlign=middle;whiteSpace=wrap;rounded=0;fontSize=36;" parent="1" vertex="1">
                    <mxGeometry x="1053.34" y="-7.329999999999984" width="60" height="30" as="geometry"/>
                </mxCell>
                <mxCell id="56" value="" style="shape=doubleArrow;direction=south;whiteSpace=wrap;html=1;fontSize=24;" parent="1" vertex="1">
                    <mxGeometry x="404" y="40" width="60" height="100" as="geometry"/>
                </mxCell>
                <mxCell id="57" value="&lt;p&gt;&lt;br&gt;&lt;/p&gt;&lt;p&gt;通&lt;/p&gt;&lt;p&gt;信&lt;/p&gt;" style="text;strokeColor=none;fillColor=none;html=1;fontSize=24;fontStyle=1;verticalAlign=middle;align=center;direction=south;" parent="1" vertex="1">
                    <mxGeometry x="414" y="50" width="40" height="37" as="geometry"/>
                </mxCell>
                <mxCell id="60" value="" style="swimlane;fontSize=24;startSize=90;" parent="1" vertex="1">
                    <mxGeometry x="-476" y="-670" width="1780" height="1360" as="geometry"/>
                </mxCell>
                <mxCell id="61" value="&lt;h1&gt;项目架构图&lt;/h1&gt;" style="text;html=1;strokeColor=none;fillColor=none;spacing=5;spacingTop=-20;whiteSpace=wrap;overflow=hidden;rounded=0;fontSize=24;" parent="60" vertex="1">
                    <mxGeometry x="766.25" y="-10" width="257.5" height="120" as="geometry"/>
                </mxCell>
                <mxCell id="62" value="" style="swimlane;startSize=0;" parent="60" vertex="1">
                    <mxGeometry x="685" y="820" width="450" height="510" as="geometry"/>
                </mxCell>
                <mxCell id="63" value="&lt;span style=&quot;font-size: 24px;&quot;&gt;图传+管理模块&lt;/span&gt;" style="rounded=1;whiteSpace=wrap;html=1;" parent="62" vertex="1">
                    <mxGeometry x="70" y="46.00000000000001" width="310" height="98.74" as="geometry"/>
                </mxCell>
                <mxCell id="64" value="&lt;span style=&quot;font-size: 24px;&quot;&gt;控制模块&lt;/span&gt;" style="rounded=1;whiteSpace=wrap;html=1;" parent="62" vertex="1">
                    <mxGeometry x="70" y="280" width="310" height="102.48" as="geometry"/>
                </mxCell>
                <mxCell id="65" value="串&lt;br&gt;口&lt;br&gt;通&lt;br&gt;信" style="shape=doubleArrow;direction=south;whiteSpace=wrap;html=1;fontSize=24;" parent="62" vertex="1">
                    <mxGeometry x="167.5" y="147.82" width="115" height="132.18" as="geometry"/>
                </mxCell>
                <mxCell id="66" value="下位机" style="text;strokeColor=none;fillColor=none;html=1;fontSize=24;fontStyle=1;verticalAlign=middle;align=center;" parent="62" vertex="1">
                    <mxGeometry x="175" y="430" width="100" height="40" as="geometry"/>
                </mxCell>
                <mxCell id="67" value="" style="swimlane;startSize=0;" parent="60" vertex="1">
                    <mxGeometry x="1310" y="810" width="450" height="510" as="geometry"/>
                </mxCell>
                <mxCell id="68" value="&lt;span style=&quot;font-size: 24px;&quot;&gt;图传+管理模块&lt;/span&gt;" style="rounded=1;whiteSpace=wrap;html=1;" parent="67" vertex="1">
                    <mxGeometry x="70" y="46.00000000000001" width="310" height="98.74" as="geometry"/>
                </mxCell>
                <mxCell id="69" value="&lt;span style=&quot;font-size: 24px;&quot;&gt;控制模块&lt;/span&gt;" style="rounded=1;whiteSpace=wrap;html=1;" parent="67" vertex="1">
                    <mxGeometry x="70" y="280" width="310" height="102.48" as="geometry"/>
                </mxCell>
                <mxCell id="70" value="串&lt;br&gt;口&lt;br&gt;通&lt;br&gt;信" style="shape=doubleArrow;direction=south;whiteSpace=wrap;html=1;fontSize=24;" parent="67" vertex="1">
                    <mxGeometry x="167.5" y="147.82" width="115" height="132.18" as="geometry"/>
                </mxCell>
                <mxCell id="71" value="下位机" style="text;strokeColor=none;fillColor=none;html=1;fontSize=24;fontStyle=1;verticalAlign=middle;align=center;" parent="67" vertex="1">
                    <mxGeometry x="175" y="430" width="100" height="40" as="geometry"/>
                </mxCell>
            </root>
        </mxGraphModel>
    </diagram>
</mxfile>